<svg width="7" height="13" viewBox="0 0 7 13" fill="none" xmlns="http://www.w3.org/2000/svg">
    <path
        d="M5.0932 2.0206H6.70158C6.84955 2.0206 6.96964 1.90744 6.96964 1.768V0.252415C6.96964 0.112981 6.84955 -0.000183105 6.70158 -0.000183105H5.0932C3.46766 -0.000183105 2.1445 1.24613 2.1445 2.77839V4.54658H0.268063C0.120092 4.54658 0 4.65974 0 4.79918V6.31477C0 6.4542 0.120092 6.56736 0.268063 6.56736H2.1445V11.8719C2.1445 12.0114 2.2646 12.1245 2.41257 12.1245H4.02095C4.16892 12.1245 4.28901 12.0114 4.28901 11.8719V6.56736H6.16545C6.28072 6.56736 6.38312 6.49765 6.42011 6.39459L6.95624 4.879C6.98358 4.80221 6.96964 4.71734 6.91924 4.65115C6.86831 4.58548 6.78789 4.54658 6.70158 4.54658H4.28901V2.77839C4.28901 2.3606 4.64982 2.0206 5.0932 2.0206Z"
        fill="#0A142F" />
</svg>