<svg width="12" height="12" viewBox="0 0 12 12" fill="none" xmlns="http://www.w3.org/2000/svg">
    <path
        d="M1.48355 2.9671C2.30289 2.9671 2.9671 2.30289 2.9671 1.48355C2.9671 0.664208 2.30289 0 1.48355 0C0.664208 0 0 0.664208 0 1.48355C0 2.30289 0.664208 2.9671 1.48355 2.9671Z"
        fill="#0A142F" />
    <path
        d="M2.71984 3.95813H0.247258C0.110772 3.95813 0 4.0689 0 4.20539V11.6231C0 11.7596 0.110772 11.8704 0.247258 11.8704H2.71984C2.85633 11.8704 2.9671 11.7596 2.9671 11.6231V4.20539C2.9671 4.0689 2.85633 3.95813 2.71984 3.95813Z"
        fill="#0A142F" />
    <path
        d="M10.088 3.54677C9.03126 3.18478 7.70942 3.50276 6.91671 4.07293C6.88951 3.96661 6.79258 3.88749 6.67736 3.88749H4.20478C4.06829 3.88749 3.95752 3.99826 3.95752 4.13475V11.5525C3.95752 11.689 4.06829 11.7998 4.20478 11.7998H6.67736C6.81385 11.7998 6.92462 11.689 6.92462 11.5525V6.22161C7.32419 5.87742 7.83898 5.76764 8.26031 5.94666C8.66878 6.11924 8.90269 6.54057 8.90269 7.10185V11.5525C8.90269 11.689 9.01346 11.7998 9.14994 11.7998H11.6225C11.759 11.7998 11.8698 11.689 11.8698 11.5525V6.60387C11.8416 4.5719 10.8857 3.81974 10.088 3.54677Z"
        fill="#0A142F" />
</svg>