<svg xmlns="http://www.w3.org/2000/svg">
    <symbol id="logo">
        <path
            d="M32.0281 8.7438L32.0329 31.0624C32.0329 31.2379 32.0377 31.4135 32.0473 31.5878C32.0474 31.6692 32.1078 31.7375 32.1873 31.7462C32.2625 31.7584 32.3386 31.7645 32.4147 31.7645H36.8947L36.9329 31.7643C37.1668 31.7634 37.2874 31.7629 37.3495 31.7015C37.4155 31.6363 37.4155 31.5022 37.4154 31.2256L37.4154 30.8479C37.4082 28.3525 37.4082 25.8571 37.4154 23.3616C37.4157 23.2827 37.4106 23.203 37.4055 23.1231C37.391 22.8948 37.3764 22.6651 37.4872 22.4475C37.7067 22.3642 37.9328 22.3757 38.1581 22.3871C38.2363 22.3911 38.3144 22.3951 38.3921 22.3951H41.7805C42.075 22.3939 42.1169 22.3585 42.1719 22.0867C42.1956 21.9725 42.208 21.8561 42.209 21.7393V18.0547C42.2054 17.919 42.1873 17.7842 42.1552 17.6525C42.1037 17.4258 42.0618 17.3916 41.8511 17.3807H38.1144C38.0633 17.3807 38.0123 17.3816 37.9612 17.3826C37.8591 17.3845 37.7569 17.3864 37.6548 17.3807C37.4764 17.3807 37.4298 17.3234 37.4154 17.1369C37.4142 17.1174 37.4142 17.0979 37.4154 17.0784V13.4523C37.4166 13.2207 37.4705 13.1695 37.6799 13.1585H42.1635C42.3167 13.1585 42.4699 13.1561 42.622 13.1476C42.7233 13.1476 42.8056 13.0643 42.8063 12.9611C42.8147 12.8063 42.8147 12.6503 42.8147 12.4942V8.69261C42.8147 8.6437 42.8149 8.59838 42.8151 8.55638C42.8165 8.29133 42.8173 8.15823 42.7523 8.09215C42.6871 8.02593 42.556 8.02659 42.2935 8.02791C42.2537 8.02811 42.2108 8.02833 42.1647 8.02833H32.7463C32.6746 8.02833 32.6101 8.02767 32.552 8.02707C32.2901 8.02439 32.158 8.02303 32.0918 8.08942C32.0244 8.15703 32.0254 8.2949 32.0273 8.57317C32.0277 8.62501 32.0281 8.68175 32.0281 8.7438Z"
            fill="#258F45" />
        <path
            d="M49.7831 23.8736V17.3222C49.7988 16.8935 49.7852 16.4642 49.7424 16.0375C49.729 15.8627 49.7343 15.687 49.7579 15.5134C49.8142 14.7942 49.8274 14.0727 49.813 13.3523C49.813 13.122 49.7603 13.0732 49.5389 13.072H46.9548C46.8558 13.072 46.7689 13.0733 46.6927 13.0744C46.4159 13.0784 46.2793 13.0804 46.2127 13.0121C46.1478 12.9455 46.1494 12.8121 46.1525 12.5488C46.1535 12.4691 46.1546 12.3776 46.154 12.2724C46.1501 11.4793 46.1514 10.6863 46.1527 9.89319L46.1527 9.88487C46.1534 9.49111 46.154 9.09734 46.154 8.70358C46.154 8.54756 46.154 8.39155 46.1636 8.23675C46.1613 8.18784 46.1784 8.14005 46.2111 8.10408C46.2437 8.06811 46.2891 8.04697 46.3372 8.04539C46.47 8.03564 46.6041 8.0332 46.7381 8.0332H58.2285C58.8185 8.0332 58.8269 8.0332 58.8269 8.65604V12.4577C58.8269 12.5942 58.8269 12.7307 58.8161 12.8672C58.8181 12.9167 58.8004 12.9648 58.7671 13.0008C58.7337 13.0368 58.6876 13.0576 58.639 13.0586C58.505 13.0671 58.3709 13.0708 58.238 13.072H55.8765C55.7233 13.072 55.5701 13.072 55.4181 13.0805C55.318 13.0749 55.2319 13.1518 55.2242 13.2536C55.2164 13.3114 55.2116 13.3696 55.2099 13.4279C55.2029 13.7575 55.1922 14.0873 55.1816 14.417C55.1577 15.159 55.1338 15.9012 55.1512 16.642C55.2165 19.4883 55.2047 22.3346 55.193 25.1813L55.193 25.1835C55.1873 26.5661 55.1816 27.9488 55.1847 29.3316C55.1847 29.7505 55.1731 30.1711 55.1615 30.5919C55.1537 30.8725 55.1459 31.1539 55.1416 31.4342C55.1357 31.756 55.1021 31.7901 54.7646 31.7913H52.0117C51.3797 31.7913 50.7478 31.7913 50.1158 31.7803C49.8549 31.7803 49.8154 31.7352 49.7998 31.4793C49.7879 31.266 49.7879 31.0502 49.7879 30.8357C49.7847 28.515 49.7831 26.1943 49.7831 23.8736Z"
            fill="#258F45" />
        <path
            d="M9.50705 8.79377L9.51064 31.4854C9.52142 31.7438 9.55373 31.7718 9.82902 31.7828H18.3283C18.373 31.7828 18.4177 31.7836 18.4624 31.7844C18.5517 31.786 18.6407 31.7876 18.7292 31.7828C18.9626 31.773 19.0033 31.7352 19.0141 31.5146V26.9524C19.0135 26.5844 19.0292 26.4136 18.9527 26.3349C18.8752 26.255 18.7031 26.2698 18.3235 26.2698H15.2223C14.8632 26.2686 14.8189 26.2235 14.8106 25.8762C14.7962 25.4081 14.7962 24.9401 14.7962 24.472V8.85228C14.7962 8.79377 14.797 8.73527 14.7978 8.67676C14.7994 8.55975 14.801 8.44274 14.7962 8.32573C14.7854 8.07586 14.7447 8.0393 14.479 8.02833H10.2862C9.84603 8.03018 9.65174 8.00402 9.56724 8.0896C9.48449 8.1734 9.50705 8.36438 9.50705 8.79377Z"
            fill="#258F45" />
        <path fill-rule="evenodd" clip-rule="evenodd"
            d="M0.763628 39.9967C0.674112 39.9967 0.59499 39.9977 0.525075 39.9986C0.254918 40.0022 0.122191 40.0039 0.0582987 39.9374C-0.00338128 39.8733 -0.000936651 39.7456 0.00386795 39.4946C0.00540409 39.4144 0.00718146 39.3216 0.00718146 39.2142C0.00239382 26.5608 0 13.9057 0 1.24901V0.488434C0 0.0252661 0.0107722 0.0106397 0.488339 0.000888815H65.1693C65.2295 0.000888815 65.2853 0.000633558 65.3371 0.000396623C65.6868 -0.0012029 65.8539 -0.00196681 65.9324 0.0822787C66.0041 0.15929 66.0019 0.307339 65.9977 0.590723C65.9965 0.667802 65.9952 0.755729 65.9952 0.854094V39.1703C65.9952 39.2758 65.9967 39.368 65.9981 39.4485C66.0026 39.7228 66.0049 39.8621 65.9375 39.9318C65.8681 40.0035 65.7249 40.0016 65.4342 39.9977C65.3538 39.9966 65.2619 39.9953 65.1574 39.9955L0.763628 39.9967ZM61.0663 35.7831C61.2566 35.7831 61.4482 35.777 61.6397 35.7648C61.7202 35.7635 61.7855 35.6981 61.7881 35.6161C61.8 35.4223 61.8084 35.2273 61.8084 35.0323V4.55456C61.7965 4.3242 61.751 4.27301 61.5415 4.26082C61.4015 4.25384 61.2598 4.2542 61.1185 4.25456L61.0244 4.25472H28.6839C28.5855 4.25472 28.4987 4.25349 28.4221 4.2524C28.1372 4.24835 27.9948 4.24633 27.9247 4.31756C27.8547 4.38867 27.8567 4.53275 27.8606 4.82066C27.8617 4.90135 27.863 4.99334 27.8629 5.09818V25.5129C27.8629 25.708 27.8593 25.903 27.8521 26.098C27.8537 26.1472 27.8356 26.195 27.802 26.2304C27.7684 26.2658 27.7221 26.2857 27.6738 26.2857C27.5461 26.2948 27.4185 26.2955 27.2909 26.2962L27.2141 26.2967H23.3661C23.2716 26.2967 23.1885 26.2979 23.1153 26.2989C22.8463 26.3028 22.7123 26.3048 22.6464 26.2377C22.5809 26.1711 22.5827 26.0364 22.5862 25.7679C22.5871 25.6984 22.5881 25.6198 22.5881 25.5312V4.99945C22.5881 4.93084 22.5886 4.86851 22.5891 4.81189C22.5916 4.53793 22.5928 4.39742 22.5244 4.32613C22.4528 4.25146 22.3048 4.25233 22.0016 4.25411C21.951 4.2544 21.8961 4.25472 21.8364 4.25472H5.91752C5.66426 4.25472 5.411 4.24749 5.15821 4.24026C5.06693 4.23765 4.97572 4.23505 4.88459 4.23278C4.70146 4.23278 4.64521 4.27057 4.64521 4.46681C4.63443 4.87635 4.62845 5.28466 4.62845 5.6942V34.357C4.62845 34.5715 4.62845 34.7861 4.63563 35.0006C4.63894 35.1148 4.63949 35.2125 4.63996 35.296C4.64128 35.5323 4.64197 35.6553 4.70284 35.7186C4.76886 35.7874 4.90567 35.786 5.19086 35.7832C5.25494 35.7826 5.32651 35.7819 5.40644 35.7819L61.0663 35.7831Z"
            fill="#258F45" />
    </symbol>
    <symbol id="linkedin">
        <path
            d="M1.48355 2.9671C2.30289 2.9671 2.9671 2.30289 2.9671 1.48355C2.9671 0.664208 2.30289 0 1.48355 0C0.664208 0 0 0.664208 0 1.48355C0 2.30289 0.664208 2.9671 1.48355 2.9671Z"
            fill="#0A142F" />
        <path
            d="M2.71984 3.95813H0.247258C0.110772 3.95813 0 4.0689 0 4.20539V11.6231C0 11.7596 0.110772 11.8704 0.247258 11.8704H2.71984C2.85633 11.8704 2.9671 11.7596 2.9671 11.6231V4.20539C2.9671 4.0689 2.85633 3.95813 2.71984 3.95813Z"
            fill="#0A142F" />
        <path
            d="M10.088 3.54677C9.03126 3.18478 7.70942 3.50276 6.91671 4.07293C6.88951 3.96661 6.79258 3.88749 6.67736 3.88749H4.20478C4.06829 3.88749 3.95752 3.99826 3.95752 4.13475V11.5525C3.95752 11.689 4.06829 11.7998 4.20478 11.7998H6.67736C6.81385 11.7998 6.92462 11.689 6.92462 11.5525V6.22161C7.32419 5.87742 7.83898 5.76764 8.26031 5.94666C8.66878 6.11924 8.90269 6.54057 8.90269 7.10185V11.5525C8.90269 11.689 9.01346 11.7998 9.14994 11.7998H11.6225C11.759 11.7998 11.8698 11.689 11.8698 11.5525V6.60387C11.8416 4.5719 10.8857 3.81974 10.088 3.54677Z"
            fill="#0A142F" />
    </symbol>
    <symbol id="facebook">
        <path
            d="M5.0932 2.0206H6.70158C6.84955 2.0206 6.96964 1.90744 6.96964 1.768V0.252415C6.96964 0.112981 6.84955 -0.000183105 6.70158 -0.000183105H5.0932C3.46766 -0.000183105 2.1445 1.24613 2.1445 2.77839V4.54658H0.268063C0.120092 4.54658 0 4.65974 0 4.79918V6.31477C0 6.4542 0.120092 6.56736 0.268063 6.56736H2.1445V11.8719C2.1445 12.0114 2.2646 12.1245 2.41257 12.1245H4.02095C4.16892 12.1245 4.28901 12.0114 4.28901 11.8719V6.56736H6.16545C6.28072 6.56736 6.38312 6.49765 6.42011 6.39459L6.95624 4.879C6.98358 4.80221 6.96964 4.71734 6.91924 4.65115C6.86831 4.58548 6.78789 4.54658 6.70158 4.54658H4.28901V2.77839C4.28901 2.3606 4.64982 2.0206 5.0932 2.0206Z"
            fill="#0A142F" />
    </symbol>
    <symbol id="twitter">
        <path
            d="M12.2202 1.26468C12.139 1.17289 12.0081 1.14981 11.9007 1.20642C11.8339 1.2416 11.7083 1.28776 11.5592 1.33338C11.7473 1.07616 11.8985 0.788169 11.9653 0.529303C11.9942 0.417733 11.952 0.300117 11.8601 0.233614C11.7682 0.167661 11.6458 0.167661 11.5539 0.233614C11.4091 0.33749 10.7102 0.649668 10.2683 0.750795C9.26957 -0.148913 8.10738 -0.242346 6.89924 0.483136C5.91712 1.07287 5.70338 2.27211 5.74506 3.00309C3.49709 2.7805 2.09979 1.55927 1.31324 0.54854C1.2582 0.47764 1.1695 0.440267 1.08614 0.445763C0.998509 0.452358 0.919427 0.502373 0.874542 0.579867C0.502641 1.22566 0.399513 1.9396 0.577449 2.64474C0.674699 3.02947 0.844619 3.36858 1.04179 3.64338C0.947213 3.59557 0.85584 3.53566 0.769811 3.46421C0.690729 3.39716 0.58012 3.38452 0.486611 3.42904C0.393635 3.47465 0.334323 3.57138 0.334323 3.67746C0.334323 4.88825 1.07065 5.69617 1.75834 6.11827C1.6472 6.10453 1.53125 6.07925 1.41423 6.04242C1.31377 6.01109 1.20476 6.04242 1.1353 6.12376C1.06584 6.20456 1.04927 6.31997 1.09255 6.41835C1.47888 7.29718 2.21093 7.90175 3.11664 8.12104C2.32581 8.59865 1.26728 8.83278 0.297988 8.71791C0.172418 8.69978 0.0527257 8.78167 0.0131845 8.90588C-0.0263567 9.03009 0.0254743 9.16639 0.136083 9.23015C1.60659 10.0793 2.93603 10.3827 4.08486 10.3827C5.75682 10.3827 7.04725 9.74073 7.83273 9.20377C9.95032 7.7583 11.2701 5.16305 11.0863 2.84096C11.4256 2.58319 11.9333 2.10723 12.248 1.59554C12.3132 1.49222 12.3014 1.35591 12.2202 1.26468Z"
            fill="#0A142F" />
    </symbol>
    <symbol id="footerLogo">
        <path
            d="M14.8494 3.99344L14.8516 14.1867C14.8516 14.2669 14.8538 14.347 14.8583 14.4266C14.8583 14.4639 14.8863 14.495 14.9232 14.499C14.9581 14.5046 14.9933 14.5074 15.0286 14.5074H17.1057L17.1234 14.5073C17.2319 14.5069 17.2878 14.5067 17.3166 14.4786C17.3472 14.4488 17.3472 14.3876 17.3471 14.2612L17.3471 14.0887C17.3438 12.949 17.3438 11.8093 17.3471 10.6696C17.3473 10.6336 17.3449 10.5972 17.3426 10.5607C17.3358 10.4564 17.3291 10.3515 17.3804 10.2521C17.4822 10.2141 17.587 10.2194 17.6915 10.2246C17.7277 10.2264 17.7639 10.2282 17.8 10.2282H19.371C19.5075 10.2276 19.5269 10.2115 19.5524 10.0874C19.5634 10.0352 19.5692 9.98204 19.5696 9.92871V8.24588C19.568 8.18392 19.5596 8.12233 19.5447 8.06218C19.5208 7.95864 19.5014 7.94305 19.4037 7.93804H17.6712C17.6475 7.93804 17.6239 7.93847 17.6002 7.9389C17.5528 7.93977 17.5055 7.94064 17.4581 7.93804C17.3754 7.93804 17.3538 7.91187 17.3471 7.8267C17.3466 7.81781 17.3466 7.80888 17.3471 7.79998V6.14387C17.3477 6.03811 17.3727 6.01473 17.4698 6.00972H19.5486C19.6196 6.00972 19.6906 6.0086 19.7611 6.00471C19.8081 6.00471 19.8462 5.96666 19.8465 5.91953C19.8504 5.84884 19.8504 5.77758 19.8504 5.70633V3.97006C19.8504 3.94772 19.8505 3.92702 19.8507 3.90784C19.8513 3.78679 19.8516 3.726 19.8215 3.69582C19.7913 3.66557 19.7305 3.66588 19.6088 3.66648C19.5903 3.66657 19.5705 3.66667 19.5491 3.66667H15.1824C15.1492 3.66667 15.1192 3.66637 15.0923 3.6661C14.9709 3.66487 14.9096 3.66425 14.8789 3.69457C14.8477 3.72545 14.8481 3.78842 14.849 3.91551C14.8492 3.93918 14.8494 3.9651 14.8494 3.99344Z"
            fill="black" />
        <path
            d="M23.0812 10.9034V7.91132C23.0885 7.71554 23.0822 7.51948 23.0624 7.32458C23.0562 7.24476 23.0586 7.16451 23.0696 7.08521C23.0957 6.75677 23.1018 6.42722 23.0951 6.09823C23.0951 5.99302 23.0707 5.97075 22.968 5.97019H21.7699C21.7241 5.97019 21.6838 5.97077 21.6484 5.97128C21.5201 5.97313 21.4568 5.97404 21.4259 5.94283C21.3958 5.91242 21.3965 5.85151 21.398 5.73124C21.3984 5.69486 21.3989 5.65305 21.3987 5.60501C21.3968 5.2428 21.3975 4.88059 21.3981 4.51838L21.3981 4.51458C21.3984 4.33474 21.3987 4.15491 21.3987 3.97507C21.3987 3.90381 21.3987 3.83256 21.4031 3.76186C21.4021 3.73952 21.41 3.7177 21.4251 3.70127C21.4403 3.68484 21.4613 3.67518 21.4836 3.67446C21.5452 3.67001 21.6073 3.6689 21.6695 3.6689H26.9968C27.2704 3.6689 27.2743 3.6689 27.2743 3.95336V5.68963C27.2743 5.75197 27.2743 5.81432 27.2693 5.87667C27.2702 5.89925 27.262 5.92124 27.2466 5.93768C27.2311 5.95413 27.2097 5.96364 27.1872 5.96407C27.125 5.96797 27.0629 5.96964 27.0013 5.97019H25.9064C25.8354 5.97019 25.7643 5.97019 25.6939 5.97409C25.6474 5.97153 25.6075 6.00665 25.604 6.05314C25.6003 6.07953 25.5981 6.10611 25.5973 6.13274C25.5941 6.28329 25.5891 6.43389 25.5842 6.58449C25.5731 6.92335 25.562 7.26235 25.5701 7.60069C25.6004 8.90064 25.5949 10.2006 25.5895 11.5007L25.5895 11.5017C25.5868 12.1332 25.5842 12.7647 25.5856 13.3962C25.5856 13.5875 25.5803 13.7796 25.5749 13.9718C25.5713 14.1 25.5677 14.2285 25.5657 14.3565C25.5629 14.5035 25.5474 14.5191 25.3909 14.5196H24.1145C23.8215 14.5196 23.5285 14.5196 23.2355 14.5146C23.1145 14.5146 23.0962 14.494 23.089 14.3771C23.0835 14.2797 23.0835 14.1812 23.0835 14.0832C23.082 13.0233 23.0812 11.9634 23.0812 10.9034Z"
            fill="black" />
        <path
            d="M4.40782 4.01626L4.40948 14.3799C4.41448 14.4979 4.42946 14.5107 4.55709 14.5157H8.49766C8.5184 14.5157 8.53913 14.5161 8.55985 14.5165C8.60122 14.5172 8.64252 14.5179 8.68356 14.5157C8.79177 14.5113 8.81064 14.494 8.81563 14.3932V12.3096C8.81536 12.1415 8.82261 12.0635 8.78717 12.0276C8.75125 11.9911 8.67144 11.9979 8.49544 11.9979H7.05761C6.89113 11.9973 6.8706 11.9767 6.86672 11.8181C6.86006 11.6043 6.86006 11.3905 6.86006 11.1768V4.04298C6.86006 4.01626 6.86043 3.98954 6.8608 3.96282C6.86154 3.90938 6.86228 3.85594 6.86006 3.8025C6.85506 3.68838 6.83619 3.67168 6.713 3.66667H4.76908C4.56498 3.66751 4.4749 3.65557 4.43572 3.69465C4.39736 3.73293 4.40782 3.82015 4.40782 4.01626Z"
            fill="black" />
        <path fill-rule="evenodd" clip-rule="evenodd"
            d="M0.354046 18.2671C0.312543 18.2671 0.275859 18.2676 0.243444 18.268C0.118189 18.2696 0.0566521 18.2704 0.0270294 18.2401C-0.00156768 18.2108 -0.000434266 18.1525 0.00179332 18.0379C0.00250553 18.0012 0.00332959 17.9588 0.00332959 17.9098C0.00110986 12.1307 0 6.35096 0 0.570441V0.223076C0 0.0115394 0.00499438 0.00485934 0.226412 0.000405937H30.2149C30.2428 0.000405937 30.2686 0.000289356 30.2927 0.000181144C30.4548 -0.000549385 30.5323 -0.000898276 30.5687 0.037578C30.6019 0.0727505 30.6009 0.140367 30.5989 0.269793C30.5984 0.304996 30.5978 0.345154 30.5978 0.390079V17.8897C30.5978 17.9379 30.5985 17.98 30.5991 18.0168C30.6012 18.142 30.6023 18.2057 30.571 18.2375C30.5388 18.2703 30.4724 18.2694 30.3377 18.2676C30.3004 18.2671 30.2578 18.2665 30.2093 18.2666L0.354046 18.2671ZM28.3126 16.3427C28.4008 16.3427 28.4896 16.3399 28.5784 16.3344C28.6157 16.3338 28.646 16.3039 28.6472 16.2665C28.6527 16.1779 28.6566 16.0889 28.6566 15.9998V2.08014C28.6511 1.97493 28.63 1.95155 28.5329 1.94599C28.4679 1.9428 28.4023 1.94296 28.3368 1.94313L28.2932 1.9432H13.2989C13.2533 1.9432 13.213 1.94264 13.1775 1.94214C13.0454 1.94029 12.9794 1.93937 12.9469 1.9719C12.9145 2.00438 12.9154 2.07018 12.9172 2.20167C12.9177 2.23853 12.9183 2.28054 12.9182 2.32842V11.6522C12.9182 11.7412 12.9166 11.8303 12.9132 11.9194C12.914 11.9419 12.9056 11.9637 12.89 11.9798C12.8744 11.996 12.853 12.0051 12.8306 12.0051C12.7714 12.0093 12.7122 12.0096 12.653 12.0099L12.6175 12.0101H10.8334C10.7896 12.0101 10.751 12.0107 10.7171 12.0112C10.5924 12.0129 10.5302 12.0138 10.4997 11.9832C10.4693 11.9528 10.4701 11.8912 10.4718 11.7686C10.4722 11.7369 10.4727 11.701 10.4727 11.6605V2.28333C10.4727 2.25199 10.4729 2.22353 10.4731 2.19767C10.4743 2.07255 10.4749 2.00838 10.4431 1.97582C10.4099 1.94171 10.3413 1.94211 10.2008 1.94292C10.1773 1.94306 10.1518 1.9432 10.1242 1.9432H2.74358C2.62616 1.9432 2.50873 1.9399 2.39153 1.9366C2.34921 1.93541 2.30692 1.93422 2.26467 1.93318C2.17977 1.93318 2.15369 1.95044 2.15369 2.04006C2.14869 2.22711 2.14592 2.41359 2.14592 2.60064V15.6914C2.14592 15.7894 2.14592 15.8874 2.14925 15.9853C2.15078 16.0375 2.15104 16.0821 2.15125 16.1203C2.15187 16.2282 2.15219 16.2843 2.18041 16.3133C2.21101 16.3447 2.27445 16.3441 2.40667 16.3428C2.43638 16.3425 2.46956 16.3422 2.50662 16.3422L28.3126 16.3427Z"
            fill="black" />
    </symbol>
</svg>